PathFileType	4	(X/Y/Z)	C:\Users\Biomechanik\SynologyDrive\AlexP\Athlete_03\Athlete_3_25_03_31\Squat_bw_02\marker_experimental.trc
DataRate	CameraRate	NumFrames	NumMarkers	Units	OrigDataRate	OrigDataStartFrame	OrigNumFrames
200.000000	200.000000	4	55	mm	200.000000	302	604
Frame#	Time	BL			BR			GLAB			RFHD			LFHD			C7			T6			SPINMOL			SPINM2			SPINM3			T12			BELTOL			BELT2			BELT3			SACROL			SACR2			SACR3			LTHOL			LTH2			LTH3			LSHAOL			LSHA2			LSHA3			LHEE			LTOE			LM5			RTHOL			RTH2			RTH3			RSHAOL			RSHA2			RSHA3			RHEE			RTOE			RM5			STRN			XIPH			LACR			LUAOL			LUA2			LUA3			LLAOL			LLA2			LLA3			LWRR			LWRU			RACR			RUAOL			RUA2			RUA3			RLAOL			RLA2			RLA3			RWRR			RWRU			
		X1	Y1	Z1	X2	Y2	Z2	X3	Y3	Z3	X4	Y4	Z4	X5	Y5	Z5	X6	Y6	Z6	X7	Y7	Z7	X8	Y8	Z8	X9	Y9	Z9	X10	Y10	Z10	X11	Y11	Z11	X12	Y12	Z12	X13	Y13	Z13	X14	Y14	Z14	X15	Y15	Z15	X16	Y16	Z16	X17	Y17	Z17	X18	Y18	Z18	X19	Y19	Z19	X20	Y20	Z20	X21	Y21	Z21	X22	Y22	Z22	X23	Y23	Z23	X24	Y24	Z24	X25	Y25	Z25	X26	Y26	Z26	X27	Y27	Z27	X28	Y28	Z28	X29	Y29	Z29	X30	Y30	Z30	X31	Y31	Z31	X32	Y32	Z32	X33	Y33	Z33	X34	Y34	Z34	X35	Y35	Z35	X36	Y36	Z36	X37	Y37	Z37	X38	Y38	Z38	X39	Y39	Z39	X40	Y40	Z40	X41	Y41	Z41	X42	Y42	Z42	X43	Y43	Z43	X44	Y44	Z44	X45	Y45	Z45	X46	Y46	Z46	X47	Y47	Z47	X48	Y48	Z48	X49	Y49	Z49	X50	Y50	Z50	X51	Y51	Z51	X52	Y52	Z52	X53	Y53	Z53	X54	Y54	Z54	X55	Y55	Z55	

303	1.51	960.7081909179688	36.20907211303723	-1933.558837890625	1063.181518554688	32.88541412353515	86.64139556884766	581.84912109375	947.0533447265626	-1203.311401367188	537.4393310546875	980.7423706054689	-1139.90625	542.30712890625	976.6732177734376	-1275.767456054688	310.933349609375	873.3875122070314	-1206.35546875	178.8170471191406	775.4530639648439	-1212.168334960938	156.0216674804688	751.9179687500001	-1234.308349609375	146.9754486083984	745.9895019531251	-1185.41796875	114.6349868774414	701.4952392578126	-1222.421264648438	83.91067504882812	657.8234863281251	-1219.827880859375	49.33395385742188	649.7336425781251	-1234.57275390625	48.92429351806641	645.3958740234376	-1184.048706054688	11.93352890014648	598.1168212890626	-1214.512451171875	-41.7620849609375	472.6153869628907	-1238.149658203125	-38.32878875732422	470.7996215820313	-1186.82275390625	-49.0260124206543	411.0273132324219	-1213.887573242188	155.8249969482422	374.3673400878907	-1512.501708984375	207.2219543457031	321.8645324707032	-1541.490844726562	206.6952667236328	371.7750244140626	-1546.760498046875	247.1416168212891	292.8110351562501	-1625.32763671875	186.1954498291016	256.3296813964845	-1588.836181640625	227.3321533203125	236.2825164794923	-1610.097900390625	115.9611358642578	73.24705505371102	-1471.116333007812	319.8135986328125	48.30700683593759	-1544.09375	240.9130554199219	27.2387638092042	-1625.891357421875	144.9697570800781	358.5279846191407	-915.0294799804688	183.8306732177734	418.2514953613282	-878.3966064453125	194.4772186279297	369.6027221679688	-878.6681518554688	233.5411071777344	301.7702636718751	-801.7145385742188	230.6292419433594	222.9145050048829	-803.6281127929688	200.9596252441406	255.1678009033204	-827.1771850585938	99.74781036376953	67.47282409667974	-969.9954833984375	287.8710327148438	45.40003204345709	-881.05517578125	202.7402496337891	40.51107406616216	-803.7018432617188	425.7032165527344	709.4910278320314	-1210.540649414062	370.9523620605469	573.1368408203126	-1207.536499023438	370.1055603027344	828.0060424804689	-1368.537719726562	279.3404235839844	750.1265258789064	-1492.171997070312	228.9020538330078	713.4806518554689	-1514.157104492188	271.9360961914062	706.5527954101564	-1541.338500976562	294.346923828125	645.2148437500001	-1629.244140625	368.3355712890625	616.1880493164064	-1627.396484375	352.7076721191406	664.3117675781251	-1623.569946289062	441.4034423828125	717.3090209960939	-1609.86767578125	430.876220703125	716.0620117187501	-1532.618286132812	363.2611694335938	828.0248413085939	-1062.770263671875	273.6065063476562	757.6253662109376	-942.1705322265625	256.602783203125	721.1026000976562	-890.5148315429688	222.6470642089844	717.8654174804689	-929.731689453125	296.532958984375	676.26416015625	-785.8746337890625	321.8471374511719	750.5620727539062	-800.6998291015625	349.4244384765625	709.1920776367188	-791.8245849609375	411.5267333984375	777.4992065429688	-813.1062622070312	409.4341125488281	769.2049560546875	-891.2968139648438	
304	1.515	960.7080078125	36.20904159545911	-1933.559204101562	1063.181640625	32.88558197021484	86.64148712158203	581.8450317382812	945.8734741210939	-1203.332641601562	537.4517211914062	979.5341186523439	-1139.899536132812	542.2977294921875	975.5339965820314	-1275.774291992188	310.92919921875	872.2321777343751	-1206.327880859375	178.8035430908203	774.3880615234376	-1212.128784179688	156.0243225097656	750.8809814453126	-1234.277099609375	146.9762268066406	744.9253540039064	-1185.400024414062	114.5741195678711	700.4889526367189	-1222.4296875	83.69233703613281	656.8423461914064	-1219.875244140625	49.10549545288086	648.7435913085939	-1234.626831054688	48.72030258178711	644.3941040039064	-1184.101928710938	11.74813938140869	597.0833740234376	-1214.5830078125	-41.85670852661133	471.4227905273438	-1238.235595703125	-38.36440658569336	469.6189270019532	-1186.877685546875	-49.01745223999023	409.8352050781251	-1213.967041015625	155.8311462402344	373.7666931152345	-1512.58154296875	207.3617706298828	321.4453125000001	-1541.649536132812	206.6942596435547	371.367645263672	-1546.851806640625	247.1654510498047	292.7749938964845	-1625.339599609375	186.2085113525391	256.3144531250001	-1588.8427734375	227.3490142822266	236.2488403320313	-1610.093627929688	115.9782104492188	73.22747802734384	-1471.080444335938	319.8235473632812	48.29911804199228	-1544.064208984375	240.9140014648438	27.26516723632822	-1625.865966796875	145.0437469482422	357.9612426757813	-915.1152954101562	183.7414093017578	417.8375244140626	-878.5631713867188	194.5025939941406	369.2117919921876	-878.7481689453125	233.5739135742188	301.7651672363282	-801.7858276367188	230.6844177246094	222.9064331054688	-803.6936645507812	201.0089416503906	255.1507720947266	-827.2529296875	99.77657318115234	67.4654159545899	-970.0453491210938	287.8714904785156	45.38584136962896	-881.0897827148438	202.7612152099609	40.53763961791997	-803.7399291992188	425.711181640625	708.3200683593751	-1210.617797851562	370.8954772949219	571.8719482421876	-1207.667602539062	370.0304260253906	826.8619384765626	-1368.556030273438	279.2702941894531	749.0618896484376	-1492.244018554688	228.8375701904297	712.4265747070314	-1514.250610351562	271.8150939941406	705.5317993164064	-1541.456665039062	294.2696838378906	644.2296142578126	-1629.370727539062	368.2648620605469	615.1677246093751	-1627.528686523438	352.6452026367188	663.2943725585939	-1623.672485351562	441.3496398925781	716.2653198242189	-1609.9248046875	430.8252868652344	714.9601440429689	-1532.681884765625	363.3251037597656	826.7965698242189	-1062.774658203125	273.7349853515625	756.3769531250001	-942.1387329101562	256.766845703125	719.8319091796875	-890.4886474609375	222.7839202880859	716.6111450195314	-929.6845092773438	296.7348022460938	674.9718627929688	-785.8634033203125	322.0681457519531	749.2554321289062	-800.6930541992188	349.6323547363281	707.8662719726562	-791.8745727539062	411.7458801269531	776.1697387695312	-813.1306762695312	409.6304626464844	767.8810424804688	-891.322998046875	
305	1.52	960.707763671875	36.20922088623059	-1933.5595703125	1063.181762695312	32.88579940795898	86.64154815673828	581.841064453125	944.7176513671876	-1203.361083984375	537.4645385742188	978.3502197265626	-1139.899047851562	542.2877197265625	974.4180297851564	-1275.788696289062	310.9281005859375	871.1004028320314	-1206.30517578125	178.7913970947266	773.3476562500001	-1212.091064453125	156.0278015136719	749.8670043945314	-1234.247314453125	146.9779052734375	743.8846435546876	-1185.381225585938	114.5150527954102	699.5067138671876	-1222.435791015625	83.47283172607422	655.8801879882814	-1219.920166015625	48.87540054321289	647.7717895507814	-1234.677978515625	48.51433181762695	643.4126586914064	-1184.152465820312	11.56396961212158	596.0712890625001	-1214.644897460938	-41.95286560058594	470.2517089843751	-1238.314575195312	-38.39662170410156	468.4604797363282	-1186.9228515625	-49.01003265380859	408.6656494140626	-1214.037475585938	155.834228515625	373.1766052246095	-1512.654907226562	207.4985961914062	321.0339660644532	-1541.796997070312	206.6876373291016	370.9713439941407	-1546.935546875	247.1868438720703	292.7373962402345	-1625.348266601562	186.2192230224609	256.2950439453126	-1588.84716796875	227.3644104003906	236.2125396728516	-1610.087158203125	115.9936904907227	73.20423126220712	-1471.043701171875	319.8329467773438	48.29042434692392	-1544.03369140625	240.9152374267578	27.29228782653819	-1625.839233398438	145.1214294433594	357.4123840332032	-915.1954956054688	183.6619567871094	417.4375305175782	-878.7255859375	194.5332946777344	368.8344116210938	-878.8245239257812	233.6118011474609	301.7612915039063	-801.8606567382812	230.743408203125	222.8999023437501	-803.7620849609375	201.0616607666016	255.1357421875001	-827.3311767578125	99.80606842041016	67.4600448608399	-970.0935668945312	287.87255859375	45.37151336669928	-881.1242065429688	202.7826385498047	40.56397628784185	-803.77783203125	425.7195129394531	707.1714477539064	-1210.69873046875	370.8385009765625	570.6268920898439	-1207.79541015625	369.9542541503906	825.7358398437501	-1368.578735351562	279.1954040527344	748.0190429687501	-1492.3203125	228.7669219970703	711.3973388671876	-1514.346923828125	271.6871337890625	704.5348510742189	-1541.57763671875	294.1858215332031	643.2666015625001	-1629.501342773438	368.185546875	614.1714477539064	-1627.66943359375	352.5743103027344	662.3016967773439	-1623.781982421875	441.2898864746094	715.2434692382814	-1609.989868164062	430.7696838378906	713.8780517578126	-1532.752563476562	363.393310546875	825.5930175781251	-1062.785034179688	273.8642883300781	755.1580810546876	-942.1113891601562	256.9304504394531	718.5911865234375	-890.4664916992188	222.9204254150391	715.3889160156251	-929.6416625976562	296.9335632324219	673.708984375	-785.8562622070312	322.2899780273438	747.9766845703125	-800.6917114257812	349.8400268554688	706.5670166015625	-791.9262084960938	411.9663696289062	774.8646850585938	-813.1632690429688	409.8260192871094	766.5810546875	-891.3566284179688	
306	1.525	960.70751953125	36.20960235595715	-1933.559814453125	1063.181762695312	32.88604354858398	86.64161682128906	581.8363037109375	943.5867309570314	-1203.397827148438	537.4769897460938	977.1914062500001	-1139.90576171875	542.2755737304688	973.3258666992189	-1275.810913085938	310.9296569824219	869.9920043945314	-1206.286743164062	178.7807006835938	772.3316040039064	-1212.055053710938	156.0322723388672	748.8754882812501	-1234.219116210938	146.9808044433594	742.8677978515626	-1185.361328125	114.4584274291992	698.5478515625001	-1222.440063476562	83.25315856933594	654.9367065429689	-1219.962280273438	48.64451599121094	646.8180541992189	-1234.726440429688	48.30754852294922	642.4508056640626	-1184.200073242188	11.38239669799805	595.0803222656251	-1214.697875976562	-42.04999542236328	469.1020202636719	-1238.387084960938	-38.42741775512695	467.3241271972657	-1186.960205078125	-49.00321197509766	407.5181274414063	-1214.099243164062	155.8353271484375	372.595916748047	-1512.7216796875	207.6334381103516	320.6292419433595	-1541.933715820312	206.6763000488281	370.5851440429689	-1547.011962890625	247.2056274414062	292.698455810547	-1625.354248046875	186.2277221679688	256.2714843750001	-1588.84912109375	227.3781127929688	236.1739959716798	-1610.078857421875	116.0076522827148	73.17743682861337	-1471.00634765625	319.8417358398438	48.28091430664072	-1544.002563476562	240.9168701171875	27.31974983215342	-1625.811645507812	145.2025146484375	356.8799438476563	-915.2708740234375	183.5916595458984	417.0505371093751	-878.8843994140625	194.5690460205078	368.4695129394532	-878.8977661132812	233.6549530029297	301.7584838867188	-801.9396362304688	230.8061828613281	222.8945312500001	-803.8338623046875	201.117919921875	255.1225738525391	-827.4124145507812	99.83677673339844	67.45632171630865	-970.1405639648438	287.8742980957031	45.35698699951178	-881.1587524414062	202.8047485351562	40.5902709960938	-803.8156127929688	425.7284545898438	706.0454101562501	-1210.783447265625	370.7816467285156	569.4017944335939	-1207.919189453125	369.8766784667969	824.6282958984376	-1368.60498046875	279.1155395507812	746.9978637695314	-1492.400024414062	228.6893768310547	710.3927612304689	-1514.445190429688	271.5562438964844	703.5595703125001	-1541.698120117188	294.0948791503906	642.3253784179689	-1629.63525390625	368.0971374511719	613.1994628906251	-1627.818359375	352.4944458007812	661.3335571289064	-1623.897827148438	441.2232971191406	714.2438964843751	-1610.063232421875	430.7090759277344	712.8164672851564	-1532.83056640625	363.4663696289062	824.4135131835939	-1062.801635742188	273.9951477050781	753.9687500000001	-942.0880126953125	257.0938720703125	717.3807373046875	-890.4476928710938	223.0568542480469	714.1992797851564	-929.6025390625	297.1289978027344	672.4759521484375	-785.85302734375	322.5119934082031	746.7264404296875	-800.6954956054688	350.0471496582031	705.2949829101562	-791.9796142578125	412.1875610351562	773.5847778320312	-813.2040405273438	410.0198669433594	765.3062133789062	-891.3978881835938	
